<svg id="visual" viewBox="0 0 5000 4700" width="5000" height="4700" xmlns="http://www.w3.org/2000/svg" xmlns:xlink="http://www.w3.org/1999/xlink" version="1.1"><rect x="0" y="0" width="5000" height="4700" fill="#111"></rect><defs><linearGradient id="grad1_0" x1="6%" y1="0%" x2="100%" y2="100%"><stop offset="28.723404255319146%" stop-color="#111111" stop-opacity="1"></stop><stop offset="71.27659574468086%" stop-color="#111111" stop-opacity="1"></stop></linearGradient></defs><defs><linearGradient id="grad2_0" x1="0%" y1="0%" x2="94%" y2="100%"><stop offset="28.723404255319146%" stop-color="#111111" stop-opacity="1"></stop><stop offset="71.27659574468086%" stop-color="#111111" stop-opacity="1"></stop></linearGradient></defs><g transform="translate(5000, 0)"><path d="M0 2230.2C-300.3 2020.2 -600.6 1810.2 -953 1650.6C-1305.4 1491 -1709.9 1381.8 -1931.4 1115.1C-2153 848.4 -2191.6 424.2 -2230.2 0L0 0Z" fill="#FBAE3C"></path></g><g transform="translate(0, 4700)"><path d="M0 -2230.2C396.6 -2175.7 793.2 -2121.1 1115.1 -1931.4C1437 -1741.7 1684.2 -1416.9 1857.6 -1072.5C2031 -728.1 2130.6 -364 2230.2 0L0 0Z" fill="#FBAE3C"></path></g></svg>